<svg xmlns="http://www.w3.org/2000/svg" version="1.1" xmlns:xlink="http://www.w3.org/1999/xlink" xmlns:svgjs="http://svgjs.dev/svgjs" width="1500" height="511" viewBox="0 0 1500 511"><g transform="matrix(1,0,0,1,-0.9090909090909918,-0.5743258554176123)"><svg viewBox="0 0 396 135" data-background-color="#ffffff" preserveAspectRatio="xMidYMid meet" height="511" width="1500" xmlns="http://www.w3.org/2000/svg" xmlns:xlink="http://www.w3.org/1999/xlink"><g id="tight-bounds" transform="matrix(1,0,0,1,0.2400000000000091,0.15172992266414553)"><svg viewBox="0 0 395.52 134.69654015467168" height="134.69654015467168" width="395.52"><g><svg viewBox="0 0 655.914168076446 223.37522521826222" height="134.69654015467168" width="395.52"><g transform="matrix(1,0,0,1,260.39416807644596,41.609747847097125)"><svg viewBox="0 0 395.52 140.15572952406797" height="140.15572952406797" width="395.52"><g id="textblocktransform"><svg viewBox="0 0 395.52 140.15572952406797" height="140.15572952406797" width="395.52" id="textblock"><g><svg viewBox="0 0 395.52 78.40471470667023" height="78.40471470667023" width="395.52"><g transform="matrix(1,0,0,1,0,0)"><svg width="395.52" viewBox="4.25 -36.5 187.54 37" height="78.40471470667023" data-palette-color="#332885"><g class="wordmark-text-0" data-fill-palette-color="primary" id="text-0"><path d="M30.15 0L8.75-27.2 8.75 0 4.25 0 4.25-35.5 8.05-35.5 29.75-7.75 29.75-35.45 34.25-35.45 34.25 0 30.15 0ZM53.45 0.5L53.45 0.5Q50.5 0.5 48.1-0.58 45.7-1.65 43.95-3.53 42.2-5.4 41.25-7.85 40.3-10.3 40.3-13L40.3-13Q40.3-15.75 41.25-18.2 42.2-20.65 43.95-22.53 45.7-24.4 48.12-25.48 50.55-26.55 53.5-26.55L53.5-26.55Q56.4-26.55 58.8-25.48 61.2-24.4 62.97-22.53 64.75-20.65 65.7-18.2 66.65-15.75 66.65-13L66.65-13Q66.65-10.3 65.7-7.85 64.75-5.4 63-3.53 61.25-1.65 58.82-0.58 56.4 0.5 53.45 0.5ZM44.8-12.95L44.8-12.95Q44.8-10.25 45.97-8.05 47.15-5.85 49.1-4.58 51.05-3.3 53.45-3.3L53.45-3.3Q55.85-3.3 57.82-4.6 59.8-5.9 60.97-8.13 62.15-10.35 62.15-13.05L62.15-13.05Q62.15-15.75 60.97-17.95 59.8-20.15 57.82-21.45 55.85-22.75 53.45-22.75L53.45-22.75Q51.05-22.75 49.1-21.43 47.15-20.1 45.97-17.9 44.8-15.7 44.8-12.95ZM85.8-26.25L85.8-22.25Q82.5-22.2 79.97-20.58 77.45-18.95 76.4-16.1L76.4-16.1 76.4 0 72 0 72-26.1 76.1-26.1 76.1-20.05Q77.45-22.75 79.67-24.43 81.9-26.1 84.35-26.3L84.35-26.3Q84.85-26.3 85.2-26.3 85.55-26.3 85.8-26.25L85.8-26.25ZM88.44-13L88.44-13Q88.44-16.7 89.97-19.78 91.49-22.85 94.17-24.7 96.84-26.55 100.29-26.55L100.29-26.55Q103.44-26.55 105.94-24.9 108.44-23.25 109.84-20.9L109.84-20.9 109.84-36.5 114.24-36.5 114.24-5Q114.24-4.2 114.57-3.83 114.89-3.45 115.64-3.4L115.64-3.4 115.64 0Q114.39 0.2 113.69 0.2L113.69 0.2Q112.39 0.2 111.42-0.7 110.44-1.6 110.44-2.7L110.44-2.7 110.44-4.9Q108.89-2.4 106.29-0.95 103.69 0.5 100.89 0.5L100.89 0.5Q98.19 0.5 95.92-0.58 93.64-1.65 91.97-3.55 90.29-5.45 89.37-7.88 88.44-10.3 88.44-13ZM109.84-9.15L109.84-9.15 109.84-16.65Q109.24-18.35 107.89-19.73 106.54-21.1 104.87-21.93 103.19-22.75 101.54-22.75L101.54-22.75Q99.59-22.75 98.02-21.93 96.44-21.1 95.32-19.73 94.19-18.35 93.59-16.6 92.99-14.85 92.99-12.95L92.99-12.95Q92.99-11 93.67-9.25 94.34-7.5 95.57-6.15 96.79-4.8 98.42-4.05 100.04-3.3 101.94-3.3L101.94-3.3Q103.14-3.3 104.42-3.75 105.69-4.2 106.84-5 107.99-5.8 108.79-6.88 109.59-7.95 109.84-9.15ZM118.54 0L133.09-35.5 136.89-35.5 151.39 0 146.59 0 142.39-10.4 127.49-10.4 123.34 0 118.54 0ZM128.39-13.9L141.39-13.9 134.99-30.3 128.39-13.9ZM160.64 0L156.14 0 156.14-35.5 170.94-35.5Q173.29-35.5 175.24-34.52 177.19-33.55 178.64-31.93 180.09-30.3 180.89-28.28 181.69-26.25 181.69-24.15L181.69-24.15Q181.69-21.25 180.39-18.63 179.09-16 176.74-14.38 174.39-12.75 171.24-12.75L171.24-12.75 160.64-12.75 160.64 0ZM160.64-31.5L160.64-16.75 170.99-16.75Q172.84-16.75 174.21-17.75 175.59-18.75 176.36-20.45 177.14-22.15 177.14-24.15L177.14-24.15Q177.14-26.25 176.24-27.93 175.34-29.6 173.89-30.55 172.44-31.5 170.69-31.5L170.69-31.5 160.64-31.5ZM191.79 0L187.29 0 187.29-35.5 191.79-35.5 191.79 0Z" fill="#332885" data-fill-palette-color="primary"></path></g></svg></g></svg></g><g transform="matrix(1,0,0,1,0,96.91418613576212)"><svg viewBox="0 0 214.17407999999998 43.24154338830584" height="43.24154338830584" width="214.17407999999998"><g transform="matrix(1,0,0,1,0,0)"><svg width="214.17407999999998" viewBox="0.35 -39.65 200.08 40.4" height="43.24154338830584" data-palette-color="#332885"><path d="M11.75-35.25Q14.75-35.25 17.05-34.2 19.35-33.15 21.3-31.05L21.3-31.05 18.35-27.65Q16.8-29.05 15.33-29.75 13.85-30.45 12.2-30.45L12.2-30.45Q10.3-30.45 9.2-29.28 8.1-28.1 8.1-26.2L8.1-26.2Q8.1-24.3 9.25-23.1 10.4-21.9 13.75-20.6L13.75-20.6Q18.05-18.85 20.08-16.5 22.1-14.15 22.1-9.85L22.1-9.85Q22.1-6.9 20.75-4.48 19.4-2.05 16.88-0.65 14.35 0.75 11 0.75L11 0.75Q7.55 0.75 5-0.48 2.45-1.7 0.35-3.95L0.35-3.95 3.55-7.45Q5.35-5.85 7-5 8.65-4.15 10.6-4.15L10.6-4.15Q12.9-4.15 14.18-5.58 15.45-7 15.45-9.45L15.45-9.45Q15.45-11.6 14.33-12.98 13.2-14.35 10.15-15.5L10.15-15.5Q5.55-17.35 3.53-19.75 1.5-22.15 1.5-25.75L1.5-25.75Q1.5-28.5 2.83-30.65 4.15-32.8 6.5-34.02 8.85-35.25 11.75-35.25L11.75-35.25ZM26.1-26.45L32.25-26.45 32.25 0 26.1 0 26.1-26.45ZM29.15-39.65Q30.8-39.65 31.82-38.6 32.85-37.55 32.85-35.9L32.85-35.9Q32.85-34.3 31.82-33.25 30.8-32.2 29.15-32.2L29.15-32.2Q27.5-32.2 26.47-33.25 25.45-34.3 25.45-35.9L25.45-35.9Q25.45-37.55 26.47-38.6 27.5-39.65 29.15-39.65L29.15-39.65ZM50.3-27.15Q53.14-27.15 54.8-25.1 56.45-23.05 56.45-19.6L56.45-19.6 56.45 0 50.3 0 50.3-18.9Q50.3-20.8 49.77-21.63 49.24-22.45 48.24-22.45L48.24-22.45Q46.14-22.45 44.09-18.5L44.09-18.5 44.09 0 37.95 0 37.95-26.45 43.3-26.45 43.74-23Q45.09-25.1 46.62-26.13 48.14-27.15 50.3-27.15L50.3-27.15ZM71.49-27.15Q73.64-27.15 75.39-26.43 77.14-25.7 78.74-24.15L78.74-24.15 76.09-20.65Q74.99-21.55 74.02-21.98 73.04-22.4 71.89-22.4L71.89-22.4Q69.64-22.4 68.49-20.28 67.34-18.15 67.34-13.1L67.34-13.1Q67.34-8.2 68.52-6.2 69.69-4.2 71.89-4.2L71.89-4.2Q72.99-4.2 73.89-4.6 74.79-5 75.99-5.85L75.99-5.85 78.74-2.3Q75.54 0.75 71.59 0.75L71.59 0.75Q66.49 0.75 63.67-2.73 60.84-6.2 60.84-13L60.84-13Q60.84-17.4 62.14-20.6 63.44-23.8 65.87-25.48 68.29-27.15 71.49-27.15L71.49-27.15ZM100.64-13.85Q100.64-13.4 100.49-11.3L100.49-11.3 86.84-11.3Q87.04-7.2 88.27-5.58 89.49-3.95 91.74-3.95L91.74-3.95Q93.29-3.95 94.54-4.48 95.79-5 97.24-6.15L97.24-6.15 99.79-2.65Q96.29 0.75 91.39 0.75L91.39 0.75Q86.19 0.75 83.41-2.85 80.64-6.45 80.64-13L80.64-13Q80.64-19.55 83.29-23.35 85.94-27.15 90.79-27.15L90.79-27.15Q95.44-27.15 98.04-23.78 100.64-20.4 100.64-13.85L100.64-13.85ZM94.64-15.3L94.64-15.65Q94.64-19.4 93.74-21.13 92.84-22.85 90.84-22.85L90.84-22.85Q88.99-22.85 88.02-21.18 87.04-19.5 86.84-15.3L86.84-15.3 94.64-15.3ZM121.23-34.25Q124.19-34.25 126.34-33.05 128.49-31.85 129.59-29.78 130.69-27.7 130.69-25.1L130.69-25.1Q130.69-22.2 129.69-19.6 128.69-17 126.34-13.68 123.98-10.35 119.39-4.9L119.39-4.9 131.28-4.9 130.63 0 112.84 0 112.84-4.55Q117.78-10.75 120.16-14.13 122.53-17.5 123.46-19.85 124.39-22.2 124.39-24.75L124.39-24.75Q124.39-27.05 123.39-28.23 122.39-29.4 120.64-29.4L120.64-29.4Q119.19-29.4 118.06-28.63 116.94-27.85 115.59-26.05L115.59-26.05 111.94-28.8Q115.48-34.25 121.23-34.25L121.23-34.25ZM145.18-34.25Q150.23-34.25 152.83-29.9 155.43-25.55 155.43-16.8L155.43-16.8Q155.43 0.75 145.18 0.75L145.18 0.75Q134.83 0.75 134.83-16.8L134.83-16.8Q134.83-34.25 145.18-34.25L145.18-34.25ZM145.18-29.6Q143.73-29.6 142.86-28.48 141.98-27.35 141.56-24.58 141.13-21.8 141.13-16.8L141.13-16.8Q141.13-11.75 141.56-8.97 141.98-6.2 142.86-5.08 143.73-3.95 145.18-3.95L145.18-3.95Q146.63-3.95 147.48-5.08 148.33-6.2 148.73-8.97 149.13-11.75 149.13-16.8L149.13-16.8Q149.13-21.85 148.73-24.6 148.33-27.35 147.48-28.48 146.63-29.6 145.18-29.6L145.18-29.6ZM166.98-34.25Q169.93-34.25 172.08-33.05 174.23-31.85 175.33-29.78 176.43-27.7 176.43-25.1L176.43-25.1Q176.43-22.2 175.43-19.6 174.43-17 172.08-13.68 169.73-10.35 165.13-4.9L165.13-4.9 177.03-4.9 176.38 0 158.58 0 158.58-4.55Q163.53-10.75 165.91-14.13 168.28-17.5 169.21-19.85 170.13-22.2 170.13-24.75L170.13-24.75Q170.13-27.05 169.13-28.23 168.13-29.4 166.38-29.4L166.38-29.4Q164.93-29.4 163.81-28.63 162.68-27.85 161.33-26.05L161.33-26.05 157.68-28.8Q161.23-34.25 166.98-34.25L166.98-34.25ZM197.28-12.5L200.43-12.5 200.43-7.8 197.28-7.8 197.28 0 191.48 0 191.48-7.8 179.48-7.8 179.48-12.05 187.43-34.35 192.63-32.45 185.68-12.5 191.53-12.5 192.23-21.05 197.28-21.05 197.28-12.5Z" opacity="1" transform="matrix(1,0,0,1,0,0)" fill="#332885" class="slogan-text-1" data-fill-palette-color="secondary" id="text-1"></path></svg></g></svg></g></svg></g></svg></g><g><svg viewBox="0 0 223.37522521826222 223.37522521826222" height="223.37522521826222" width="223.37522521826222"><g><svg></svg></g><g id="icon-0"><svg viewBox="0 0 223.37522521826222 223.37522521826222" height="223.37522521826222" width="223.37522521826222"><g><path d="M0 111.688c0-61.683 50.004-111.688 111.688-111.688 61.683 0 111.688 50.004 111.687 111.688 0 61.683-50.004 111.688-111.687 111.687-61.683 0-111.688-50.004-111.688-111.687zM111.688 216.305c57.778 0 104.617-46.839 104.617-104.617 0-57.778-46.839-104.617-104.617-104.617-57.778 0-104.617 46.839-104.617 104.617 0 57.778 46.839 104.617 104.617 104.617z" data-fill-palette-color="accent" fill="#332885" stroke="transparent"></path><ellipse rx="110.5707364830398" ry="110.5707364830398" cx="111.68761260913111" cy="111.68761260913111" fill="#332885" stroke="transparent" stroke-width="0" fill-opacity="1" data-fill-palette-color="accent"></ellipse></g><g transform="matrix(1,0,0,1,50.6850795944196,64.76246415214624)"><svg viewBox="0 0 122.00506602942302 93.85029691396973" height="93.85029691396973" width="122.00506602942302"><g><svg xmlns="http://www.w3.org/2000/svg" xmlns:xlink="http://www.w3.org/1999/xlink" version="1.1" x="0" y="0" viewBox="11.868000000000006 4.012 76.26299999999999 58.664" enable-background="new 0 0 100 100" xml:space="preserve" height="93.85029691396973" width="122.00506602942302" class="icon-cg-0" data-fill-palette-color="quaternary" id="cg-0"><g fill="#ffffff" data-fill-palette-color="quaternary"><path d="M55.133 11.345c14.129 0 25.585 13.045 25.66 29.169 0 0.055 0.005 0.107 0.005 0.162 0 8.101-6.565 14.667-14.665 14.667h-0.001H30.934c-6.479 0-11.732-5.254-11.732-11.733 0-6.381 5.096-11.569 11.439-11.725C33.91 19.982 43.637 11.345 55.133 11.345M55.133 4.012c-7.344 0-14.289 2.614-20.089 7.56-4.338 3.698-7.725 8.44-9.95 13.885-2.924 0.937-5.594 2.578-7.795 4.829-3.502 3.581-5.431 8.313-5.431 13.324 0 10.512 8.553 19.065 19.065 19.066h35.198c12.13 0 22-9.867 22-22 0-0.096-0.003-0.19-0.006-0.285-0.064-9.538-3.396-18.538-9.387-25.35C72.484 7.93 64.102 4.012 55.133 4.012L55.133 4.012z" fill="#ffffff" data-fill-palette-color="quaternary"></path></g></svg></g></svg></g></svg></g></svg></g></svg></g><defs></defs></svg><rect width="395.52" height="134.69654015467168" fill="none" stroke="none" visibility="hidden"></rect></g></svg></g></svg>