<?xml version="1.0" encoding="UTF-8" standalone="no"?>
<svg
   id="svg"
   version="1.1"
   style="display: block;"
   viewBox="0 0 521 546"
   xmlns="http://www.w3.org/2000/svg"
   xmlns:svg="http://www.w3.org/2000/svg">
  <defs
     id="defs13" />
  <path
     id="path4"
     style="fill: rgb(251, 202, 3); --darkreader-inline-fill:#fcd01d;"
     d="M -46.298828 -5.9824219 C -75.713898 -5.5357653 -107.53337 1.6684207 -123 18 C -120.77589 18.540393 -118.5526 19.083957 -116.33008 19.630859 L -113.5625 20.3125 C -106.92706 21.923894 -100.44378 23.73389 -94 26 L -94 30 C -95.914101 31.05883 -95.914841 31.059809 -97.822266 31.402344 L -100.05078 31.796875 L -102.57617 32.253906 C -128.03992 36.860139 -147.77606 42.258866 -168.21484 58.574219 L -170 60 C -181.64745 69.062425 -191.81501 79.465653 -201.625 90.453125 L -203 92 C -213.1078 103.30667 -221.5867 115.44872 -229.63477 128.29102 L -231.125 130.6875 C -233.84016 135.01098 -236.48694 138.79755 -237 144 C -235 145 -235.00049 144.99976 -232.57031 145.29688 L -229.55469 145.53516 L -226.29297 145.79883 L -222.875 146.0625 C -219.64063 146.32132 -216.40675 146.57974 -213.17188 146.83203 L -211 147 C -212.1985 149.55276 -213.27539 151.31954 -215.14453 153.48828 C -216.52533 154.94995 -217.90531 156.41319 -219.27344 157.88672 L -220.80078 159.53906 C -233.52728 173.28917 -243.92778 187.19877 -252.79297 203.75391 L -254.375 206.75 C -269.66112 235.62126 -285.52374 277.1113 -283 310 C -214.06074 315.85629 -143.99661 330.44118 -83.195312 364.74609 L -81 366 C -63.722104 375.84384 -46.799936 386.17805 -31.160156 398.49609 C -29.521296 399.79963 -27.878119 401.09372 -26.21875 402.37109 C -20.593442 406.67595 -14.919452 410.88229 -9.9375 415.9375 C -7.7071932 418.28194 -5.4531131 420.49473 -3.0507812 422.66797 C 3.3166329 428.36119 9.1309651 434.2193 14.609375 440.77734 C 17.459896 444.1958 20.36384 447.53281 23.394531 450.79297 C 26.880208 454.52818 30.311515 458.26533 33.4375 462.3125 C 35.041213 464.43925 36.647006 466.56096 38.316406 468.63672 C 44.42656 476.15141 50.354566 483.67109 55.789062 491.69531 C 56.925011 493.39322 58.062626 495.09168 59.210938 496.78125 C 63.907524 503.67764 68.440527 510.62917 72.6875 517.8125 C 76.187203 523.74651 79.92883 529.43651 84 535 L 88 534 C 98.07818 503.44382 98.078078 503.4434 98.185547 435.67969 L 98.1875 432.5625 C 98.226443 396.84468 93.391916 362.74507 85.820312 327.91406 L 85.375 325.875 C 82.354418 311.99439 79.226891 298.2902 73.8125 285.125 C 71.739521 280.11374 69.876738 275.40153 69.199219 269.99219 C 69.006239 266.12503 68.893308 265.33232 71.207031 262.54688 C 75.640281 257.58508 79.986875 252.55243 84.304688 247.49023 C 86.355046 245.08599 88.402945 242.67874 90.488281 240.30469 C 98.518892 231.20802 106.45704 221.82747 110 210 C 77.066557 209.43622 45.565218 214.16433 13.394531 221.00195 C 11.002189 221.51076 8.6082748 222.01587 6.2148438 222.51953 C -0.24620898 223.87561 -6.7043751 225.23758 -13.162109 226.60938 L -15 227 L -15 220 C -9.0540572 217.93561 -3.0360267 216.52907 3.0976562 215.14258 L 5.125 214.6875 C 36.499073 207.63331 67.440643 202.78237 99.648438 202.74805 L 102.6875 202.75 C 105.60953 202.75176 108.53115 202.75794 111.45312 202.77539 L 114.19922 202.79688 C 121.88016 202.83703 129.4336 203.27485 137.02734 204.48047 L 139.50781 204.97266 C 141.38099 205.33188 143.25339 205.69519 145.125 206.0625 C 151.52852 207.33528 157.46127 208.23847 164 208 L 164 206 C 161.08592 202.04517 158.14355 199.08809 154.09375 196.32422 L 152.25 195.125 C 144.90216 190.31149 137.2866 186.37758 129.21289 182.92969 L 127 182 C 95.487365 168.65554 61.069023 164.592 27.109375 164.02734 L 25 164 L 25 155 C 27.926042 155.52303 30.817861 155.98409 33.779297 156.25 L 36.648438 156.42969 L 39.90625 156.64648 C 79.018338 159.23193 117.17457 165.1109 151.53711 185.07422 C 176.1842 200.20033 186.13 222.31613 192.60547 249.33789 L 193 251 L 197 252 C 198.581 249.01115 199.88669 245.94096 201.11328 242.79102 L 201.875 240.8125 C 208.13772 225.32138 209.5897 210.60012 209.35742 194.02148 C 209.32771 191.90605 209.30638 189.79141 209.29492 187.67578 C 209.28703 185.57625 209.27746 183.47645 209.26367 181.37695 L 209.23828 178.36719 C 209.15146 167.33556 207.53612 157.49503 204 147 C 192.83819 119.84415 169.65979 101.44092 143.34375 89.949219 C 128.53761 83.530207 121.37018 77.86063 113 64 C 97.95565 38.752953 76.452865 18.837199 50.015625 5.9667969 L 48 5 C 45.651689 3.8687153 43.299791 2.7499856 40.935547 1.6523438 L 38.5625 0.5625 C 32.962169 -2.0534078 28.184082 -3.5049946 22 -4 L 22 5 C 18.588136 5.1828717 15.89758 4.972493 12.582031 4.0820312 C 10.625153 3.4229791 8.6667985 2.7670039 6.6992188 2.140625 C 4.4631135 1.4358034 2.2300521 0.72375901 0 0 C -11.865803 -4.0859827 -28.649787 -6.2504157 -46.298828 -5.9824219 z M -39.492188 61.949219 C -18.94432 61.768444 2.8477977 66.271236 16 77 C 34.182055 94.536885 34.182103 94.536939 40 104 C 39.000002 107 38.999995 107 36.527344 108.25391 C 26.541104 111.89415 16.443551 115.16422 6.3125 118.375 L 4.1425781 119.06836 C 2.0723868 119.72793 0.00017299121 120.37721 -2.0742188 121.02344 L -5.7480469 122.17773 C -8.7241462 122.93087 -10.962028 123.34024 -14 123 C -16.427061 121.43179 -18.541889 119.8945 -20.75 118.0625 L -22.601562 116.55664 C -34.502928 106.74925 -34.503199 106.74874 -37 103 C -36.847032 98.793384 -34.843272 95.377399 -32.9375 91.6875 L -31.277344 88.449219 L -30 86 C -48.162501 80.510755 -48.163062 80.509758 -66.640625 76.242188 C -71.801396 75.198108 -71.800922 75.199078 -74 73 C -73.625 69.875006 -73.624998 69.874994 -73 67 C -63.701572 63.851818 -51.820907 62.057684 -39.492188 61.949219 z M 116.55664 101.05078 C 119.68119 101.09366 122.69048 101.81127 125.5625 103.5625 L 127 105 C 125.42468 108.92463 122.86937 111.19959 119.8125 114.0625 C 114.52777 119.13852 110.62231 124.60841 107 131 C 102.61625 129.40327 100.54886 128.00535 98 124 C 96.719635 120.76143 96.700817 118.85363 97.851562 115.57031 C 100.9426 108.84979 104.08998 104.91157 110.8125 101.625 C 112.76595 101.24197 114.68191 101.02505 116.55664 101.05078 z "
     transform="translate(298,8)" />
</svg>
